DataType=double
version=3
OpenSimVersion=4.5
endheader
time	ground_force_1_vx	ground_force_1_vy	ground_force_1_vz	ground_force_1_px	ground_force_1_py	ground_force_1_pz	ground_moment_1_mx	ground_moment_1_my	ground_moment_1_mz
1.5	0.04290677938588638	0.08974332971723697	-0.03603818245007773	0.7434283706476623	0.006637299061187014	0.4090961113748556	0	-0.001458164768878556	0
1.505	0.04000365598921274	0.1422065126378129	-0.03754666262713613	0.7540166809086315	0.006637299061187014	0.4084574045055351	0	-0.001354115440966697	0
1.51	0.03641562254355613	0.1984694944188163	-0.03880195774404882	0.7650892779572802	0.006637299061187014	0.407781460651633	0	-0.00124690049606252	0
1.515	0.03204291302060103	0.2575331315853759	-0.03964111084117761	0.7765823822996206	0.006637299061187014	0.407071052481783	0	-0.001136400327790776	0
1.52	0.02678579333752795	0.3179905784425614	-0.03985568995245359	0.7884339876151057	0.006637299061187014	0.4063294163370412	0	-0.001021275333414784	0
1.525	0.02054785266651749	0.3779612028854444	-0.0391884655232495	0.8005844675584081	0.006637299061187014	0.4055603374267203	0	-0.0008988663191386581	0
1.53	0.01323965734310661	0.4350249875445229	-0.03733218629127677	0.8129768829808665	0.006637299061187014	0.404768194641535	0	-0.0007652325960205153	0
1.535	0.004783277120927298	0.4861590043664705	-0.03393028755354166	0.8255570570691696	0.006637299061187014	0.4039579675988517	0	-0.0006152782074917429	0
1.54	-0.004881944970021479	0.527678347280812	-0.02857958024821627	0.8382734789445055	0.006637299061187014	0.4031352093027359	0	-0.0004429363751209392	0
1.545	-0.01579209513309232	0.5551848167473281	-0.02083513622247679	0.8510770887303973	0.006637299061187014	0.4023059884790911	0	-0.0002413948996182746	0
1.55	-0.02794965497998003	0.5635276466749133	-0.01021771877935151	0.863920989268364	0.006637299061187014	0.4014768062461218	0	-3.353927397531375e-06	0
1.555	-0.04131260092721645	0.546781625200822	0.003775779728911743	0.8767601217758824	0.006637299061187014	0.4006544923021743	0	0.0002786856475187616	0
1.56	-0.05578159351729584	0.4982490587062216	0.02165833365553738	0.8895509350020054	0.006637299061187014	0.3998460862426859	0	0.0006120987040712511	0
1.565	-0.07118530819543123	0.4104931210502514	0.04393457721827687	0.9022510700157752	0.006637299061187014	0.3990587099292782	0	0.001003767771320829	0
1.57	-0.0872640573470016	0.2754111680781648	0.07107772077247176	0.9148190758146495	0.006637299061187014	0.3982994369919072	0	0.001459657926055569	0
1.575	-0.1036519565466127	0.0843575438947255	0.1035009244241074	0.9272141646040071	0.006637299061187014	0.3975751655107456	0	0.001984322398188687	0
1.58	-0.1198580037636345	-0.1716737706213394	0.1415225146346479	0.9393960100035079	0.006637299061187014	0.3968924996625537	0	0.002580328487579053	0
1.585	-0.1352465758819639	-0.5017956625742386	0.1853245199679101	0.9513245867017194	0.006637299061187014	0.396257645601627	0	0.003247596238121986	0
1.59	-0.1490180057509951	-0.9148921281648086	0.2349041354569401	0.9629600463182562	0.006637299061187014	0.3956763260702817	0	0.003982645771092752	0
1.595	-0.1601900862179124	-1.419188752448861	0.2900179093348427	0.9742626215426018	0.006637299061187014	0.3951537172133086	0	0.004777753298617071	0
1.6	-0.1675815551158624	-2.021718285877341	0.3501186902851572	0.9851925490843676	0.006637299061187014	0.3946944098453593	0	0.005620020741268772	0
1.605	-0.1697988456900528	-2.727671087775207	0.414285687433015	0.9957100016544183	0.006637299061187014	0.3943023960547786	0	0.006490369696086962	0
1.61	-0.1652276374505202	-3.539621809419714	0.4811483885857797	1.00577502013804	0.006637299061187014	0.3939810806066599	0	0.007362477372048759	0
1.615	-0.1520310078621958	-4.456626130784912	0.5488055640387799	1.015347439326919	0.006637299061187014	0.3937333152281237	0	0.008201680130706046	0
1.62	-0.1281562588880325	-5.473184803214338	0.6147411616576122	1.02438680401799	0.006637299061187014	0.3935614526169759	0	0.008963879511470041	0
1.625	-0.0913527663301843	-6.578076846524993	0.6757395796106991	1.032852276897793	0.006637299061187014	0.3934674159968229	0	0.00959449614672031	0
1.63	-0.03920346397947583	-7.753069666259762	0.7278035891053705	1.040702545304378	0.006637299061187014	0.3934527793108302	0	0.0100275288293516	0
1.635	0.03082718534418305	-8.971521257887389	0.7660790711827445	1.04789574054868	0.006637299061187014	0.3935188527346177	0	0.01018478916388221	0
1.64	0.1213256816795756	-10.19689870357837	0.7847917256001509	1.054389390798054	0.006637299061187014	0.3936667680919033	0	0.009975396583573826	0
1.645	0.2348392576167386	-11.38124797588057	0.7772019970131119	1.060140436353119	0.006637299061187014	0.3938975589333458	0	0.009295633812836157	0
1.65	0.3737596934541274	-12.46366273970131	0.73558562807359	1.065105344226621	0.006637299061187014	0.3942122304166152	0	0.008029278748423962	0
1.655	0.5401780144059201	-13.36881444149634	0.6512484665896068	1.069240366966099	0.006637299061187014	0.3946118146083302	0	0.006048544748918694	0
1.66	0.7357071238609281	-14.00562248194586	0.5145853909226155	1.072501998324048	0.006637299061187014	0.3950974073100051	0	0.003215776836593798	0
1.665	0.9612698277141083	-14.26616159042925	0.3151944295865441	1.074847685307915	0.006637299061187014	0.3956701828876982	0	-0.0006139344606466146	0
1.67	1.216850325092329	-14.02492344913099	0.04205828002456613	1.076236861937858	0.006637299061187014	0.3963313837724354	0	-0.005589047947495707	0
1.675	1.501208119433524	-13.13857082028284	-0.3161935938716773	1.07663237426095	0.006637299061187014	0.397082281237533	0	-0.01185659312006937	0
1.68	1.811554491643482	-11.44634446131738	-0.7709283724382949	1.076002368328421	0.006637299061187014	0.3979241037277663	0	-0.01955573230548263	0
1.685	2.14319323447907	-8.771305370184564	-1.333044496575468	1.074322712396155	0.006637299061187014	0.3988579284326703	0	-0.02880968078495943	0
1.69	2.489129329510451	-4.922616565917735	-2.012383262587942	1.071580020957307	0.006637299061187014	0.3998845310218345	0	-0.03971581336931601	0
1.695	2.839651697560681	0.3009114092898812	-2.817003848053403	1.067775340696545	0.006637299061187014	0.4010041875911798	0	-0.052333807485481	0
